<svg id="Layer_1" xmlns="http://www.w3.org/2000/svg" viewBox="0 0 108.4 36.9" style="">
  <style>
    .st1{fill:none;stroke:#e82e7e;stroke-width:.25;stroke-miterlimit:10}
  </style>
  <path class="st1 BNTmaRIv_0" d="M19.6 14l-.9 7.5c-.1.5-.1 1-.1 1.4 0 .2 0 .4.2.5.1.1.2.2.4.2.5 0 .9-.1 1.3-.4.4-.3.7-.7 1-1.2.3-.5.5-1.1.7-1.7.2-.6.2-1.3.2-2 0-1.1-.2-2.2-.7-3.1-.4-.9-1-1.7-1.8-2.4s-1.7-1.2-2.7-1.5c-1-.4-2.2-.5-3.4-.5-1.4 0-2.7.2-3.8.7s-2.2 1.1-3 1.9c-.9.8-1.5 1.8-2 2.9-.5 1.1-.7 2.3-.7 3.6 0 1.4.3 2.7.8 3.9.5 1.1 1.2 2.1 2.1 2.9.9.8 1.9 1.4 3.1 1.8 1.2.4 2.5.6 3.8.6.8 0 1.5 0 2.1-.1.6-.1 1.2-.1 1.7-.3.5-.1 1-.3 1.5-.6s1-.5 1.6-.9l1.3 2.5c-1.2.8-2.5 1.3-3.8 1.7-1.3.4-2.8.6-4.3.6-2 0-3.7-.3-5.3-1-1.6-.6-2.9-1.5-4-2.6S3 26 2.4 24.6c-.6-1.5-.9-3-.9-4.6 0-1.7.3-3.3 1-4.7.6-1.5 1.5-2.7 2.6-3.8S7.5 9.6 9 8.9c1.5-.6 3.1-.9 4.9-.9 1.6 0 3.1.3 4.5.8S21 10.1 22 11c1 .9 1.8 2 2.4 3.3.6 1.3.9 2.6.9 4.1 0 1.2-.2 2.3-.5 3.3s-.8 1.9-1.3 2.6c-.6.7-1.3 1.3-2.1 1.7s-1.7.6-2.7.6c-.5 0-1-.1-1.5-.4-.4-.3-.8-.7-1.1-1.1-.7.7-1.3 1.1-1.9 1.2-.6.2-1.2.3-1.7.3-.6 0-1.3-.2-2-.5s-1.3-.7-1.9-1.3c-.6-.6-1-1.2-1.4-2-.3-1-.5-1.8-.5-2.8 0-.9.2-1.8.5-2.5.4-.8.8-1.4 1.4-2 .6-.5 1.2-1 2-1.3s1.5-.5 2.3-.5c.9 0 1.6.2 2.2.5.6.3 1.1.8 1.4 1.3l.3-1.5h2.8zM10 20c0 .4.1.8.2 1.2.2.4.4.7.6 1s.6.5 1 .7c.4.2.8.3 1.2.3.4 0 .8-.1 1.2-.3.4-.2.7-.4 1-.7s.5-.6.6-1c.2-.4.2-.8.2-1.2 0-.4-.1-.8-.2-1.2-.2-.4-.4-.7-.6-1s-.6-.5-1-.7c-.4-.2-.8-.3-1.2-.3-.4 0-.8.1-1.2.3-.4.2-.7.4-1 .7s-.5.6-.6 1c-.2.4-.2.8-.2 1.2zM44.9 26.4H39V3.8h9.4c2.5 0 4.5.7 5.8 2 1.4 1.3 2 3.2 2 5.6 0 2.4-.7 4.3-2 5.6-1.4 1.3-3.3 2-5.8 2h-3.5v7.4zm0-12.2h2c2.2 0 3.2-.9 3.2-2.8S49 8.6 46.9 8.6h-2v5.6zM64.3 1.5v24.9h-5.4V1.5h5.4zM79.9 11h5.5v15.4h-5.5v-1.7c-1.2 1.5-2.7 2.2-4.7 2.2-1.1 0-2.2-.2-3.1-.6-.9-.4-1.8-1-2.5-1.7-.7-.8-1.2-1.6-1.6-2.6-.4-1-.6-2.1-.6-3.3 0-1.1.2-2.1.6-3.1s.9-1.9 1.6-2.6 1.5-1.3 2.4-1.8c.9-.4 2-.6 3.1-.6 1.9 0 3.5.7 4.8 2V11zm-6.8 7.7c0 .5.1 1 .3 1.4.2.4.4.8.7 1.1.3.3.7.6 1.1.8.4.2.9.3 1.4.3.5 0 .9-.1 1.4-.3.4-.2.8-.4 1.1-.8.3-.3.6-.7.8-1.1.2-.4.3-.9.3-1.3 0-.5-.1-.9-.3-1.4-.2-.4-.4-.8-.8-1.1-.3-.3-.7-.6-1.1-.8-.4-.2-.9-.3-1.4-.3-.5 0-1 .1-1.4.3-.4.2-.8.4-1.1.8-.3.3-.6.7-.7 1.1-.3.4-.3.8-.3 1.3zM94.9 24.3L87.5 11h6.3l4.1 7.9 4-7.9h6.2L95.8 34.1h-6.1l5.2-9.8z"></path>
<style data-made-with="vivus-instant">.BNTmaRIv_0{stroke-dasharray:531 533;stroke-dashoffset:532;animation:BNTmaRIv_draw_0 10600ms ease-in-out 0ms infinite,BNTmaRIv_fade 10600ms linear 0ms infinite;}@keyframes BNTmaRIv_draw{100%{stroke-dashoffset:0;}}@keyframes BNTmaRIv_fade{0%{stroke-opacity:1;}96.22641509433963%{stroke-opacity:1;}100%{stroke-opacity:0;}}@keyframes BNTmaRIv_draw_0{7.547169811320755%{stroke-dashoffset: 532}67.9245283018868%{ stroke-dashoffset: 0;}100%{ stroke-dashoffset: 0;}}</style></svg>
