<svg id="Layer_1" xmlns="http://www.w3.org/2000/svg" viewBox="0 0 134.4 46.9" style="">
  <style>
    .st1{fill:none;stroke:#48ac33;stroke-width:.75;stroke-miterlimit:10}
  </style>
  <path class="st1 KZmyUGoi_0" d="M12.4 27.3v-.2c-.3 0-.5.1-.7.1h-.6c-1.3 0-2.3-.4-3.1-1.2-.8-.8-1.2-1.8-1.2-2.9 0-1.3.5-2.4 1.5-3.3s2.4-1.4 4.2-1.4V17c0-1.1-.4-2.1-1.1-2.8-.7-.7-1.6-1.1-2.7-1.1-.7 0-1.4.2-2.1.6-.4.3-.8.6-1.1 1-.5.5-.9 1.3-1.3 2.2s-.5 2.1-.5 3.5v5.2c0 2 .5 3.7 1.4 5.1.9 1.3 2.2 2 3.8 2 1.6 0 2.7-.4 3.5-1.1.2-.2.3-.2.5-.2s.3.1.5.2.2.3.2.4c0 .3-.3.7-.9 1.1-1 .6-2.3 1-3.9 1-.8 0-1.6-.2-2.3-.5-.7-.3-1.3-.7-1.7-1.3-.3-.3-.6-.9-1-1.7s-.7-1.5-.9-2.1c-.2-.8-.4-1.8-.4-3v-5.2c0-2.7.7-4.8 2.1-6.5 1.1-1.4 2.5-2 4.2-2 .9 0 1.6.2 2.4.5s1.4 1 1.9 1.8c.6.8.8 1.8.8 2.9v9c.2 0 .4.1.5.2.1.1.2.3.2.4 0 .1 0 .3-.1.4l-.2.2c-.1 0-.3.1-.5.1h-1.4zm0-7.5c-1.4 0-2.5.4-3.2 1-.8.7-1.2 1.5-1.2 2.3 0 .8.3 1.5.9 2 .6.5 1.4.8 2.4.8h.6c.2 0 .4-.1.6-.1v-6zM46.4 13.3v-1.7c0-.3.1-.6.2-.7.1-.1.3-.2.5-.2s.4.1.5.2c.1.1.2.4.2.7v1.7c.7.1 1.3.2 1.8.3.5.2 1 .5 1.6.9 0-.3.1-.5.2-.6s.3-.2.5-.2.4.1.5.2c.1.1.2.4.2.7v2c0 .3-.1.5-.2.7-.1.1-.3.2-.5.2s-.3-.1-.4-.2c-.1-.1-.2-.3-.2-.6-.1-.5-.4-.9-1-1.3-.9-.6-1.9-.8-3-.8-1.2 0-2.1.3-2.9 1S43 17 43 17.9c0 .9.3 1.5 1 2 .5.4 1.6.7 3.2 1 1.6.3 2.8.6 3.3.9.8.4 1.5.9 1.9 1.5.4.6.6 1.4.6 2.3 0 1.2-.5 2.2-1.4 3.1-.9.9-2.3 1.4-4 1.6v3.9c0 .3-.1.6-.2.7 0 0-.2.1-.4.1s-.4-.1-.5-.2c-.1-.1-.2-.4-.2-.7v-3.9c-1.6-.1-3-.6-4-1.6 0 .5 0 .7-.1.8 0 .1-.1.2-.2.3-.1.1-.2.1-.4.1s-.3-.1-.5-.2c0-.1-.1-.3-.1-.6v-2.6c0-.3.1-.5.2-.7.1-.1.3-.2.5-.2s.3.1.5.2c.1.1.2.3.2.6.1.6.5 1.1 1.3 1.7s2 .9 3.4.9c1.5 0 2.6-.3 3.5-1 .8-.7 1.3-1.5 1.3-2.4 0-.6-.2-1.1-.5-1.6s-.8-.8-1.5-1.1c-.4-.2-1.4-.4-2.8-.7-2-.4-3.4-.9-4.2-1.5-.8-.6-1.2-1.5-1.2-2.8 0-1.1.4-2.1 1.3-3 .8-.8 1.9-1.4 3.4-1.5zM70.8 32h-1.6l-2.9-8.4-2.9 8.4h-1.6L59 19.8h-.6c-.3 0-.5-.1-.7-.2-.1-.1-.2-.3-.2-.5s.1-.3.2-.5c.1-.1.4-.2.7-.2H62c.3 0 .5.1.7.2.1.1.2.3.2.5s-.1.3-.2.5c-.1.1-.4.2-.7.2h-1.7l2.3 10.4 2.8-8.3H67l2.9 8.3 2.2-10.4h-1.7c-.3 0-.5-.1-.7-.2s-.2-.3-.2-.5.1-.3.2-.5c.1-.1.4-.2.7-.2H74c.3 0 .6.1.7.2.1.1.2.3.2.5s-.1.3-.2.5c-.1.1-.4.2-.7.2h-.6L70.8 32zM92.8 25.3c0 2-.7 3.7-2.1 5.1-1.4 1.4-3.2 2.1-5.2 2.1s-3.8-.7-5.2-2.1c-1.4-1.4-2.1-3.1-2.1-5.1 0-2 .7-3.7 2.1-5.1 1.4-1.4 3.2-2.1 5.2-2.1s3.7.7 5.2 2.1c1.4 1.3 2.1 3 2.1 5.1zm-1.4 0c0-1.6-.6-3-1.8-4.2s-2.6-1.7-4.3-1.7c-1.7 0-3.1.6-4.3 1.7-1.2 1.2-1.8 2.6-1.8 4.2s.6 3 1.8 4.2c1.2 1.2 2.6 1.8 4.3 1.8 1.7 0 3.1-.6 4.3-1.7 1.3-1.3 1.8-2.7 1.8-4.3zM103.1 18.5v3.3c1.7-1.5 3-2.5 3.8-3 .8-.4 1.6-.7 2.4-.7.8 0 1.5.3 2.2.8.7.5 1 .9 1 1.2 0 .2-.1.4-.2.5-.1.1-.3.2-.5.2-.1 0-.2 0-.3-.1-.1 0-.2-.2-.4-.4-.4-.4-.7-.6-1-.8-.3-.1-.5-.2-.8-.2-.6 0-1.3.2-2.1.7-.8.5-2.2 1.6-4.2 3.4v7.2h5.8c.3 0 .6.1.7.2.1.1.2.3.2.5s-.1.3-.2.5c-.1.1-.4.2-.7.2H98.6c-.3 0-.5-.1-.7-.2-.1-.1-.2-.3-.2-.5s.1-.3.2-.4c.1-.1.4-.2.7-.2h3.2V19.8h-2.4c-.3 0-.5-.1-.7-.2-.1-.1-.2-.3-.2-.5s.1-.3.2-.5c.1-.1.4-.2.7-.2h3.7zM121.2 26.1V32h-3.1c-.3 0-.5-.1-.7-.2-.1-.1-.2-.3-.2-.5s.1-.4.2-.5c.1-.1.4-.2.7-.2h1.8v-17h-1.8c-.3 0-.5-.1-.7-.2-.1-.1-.2-.3-.2-.5s.1-.3.2-.5c.1-.1.4-.2.7-.2h3.1v12.1l5.6-4.7h-.7c-.3 0-.5-.1-.7-.2-.1-.1-.2-.3-.2-.5s.1-.4.2-.5c.1-.1.4-.2.7-.2h4.2c.3 0 .6.1.7.2.1.1.2.3.2.5s-.1.3-.2.5c-.1.1-.4.2-.7.2h-1.5l-5.1 4.3 6.5 6.6h1.5c.3 0 .6.1.7.2.1.1.2.3.2.5s-.1.3-.2.5c-.1.1-.4.2-.7.2h-4.2c-.3 0-.5-.1-.7-.2-.1-.1-.2-.3-.2-.5s.1-.4.2-.5c.1-.1.4-.2.7-.2h.9l-5.6-5.8-1.6 1.4z"></path>
<style data-made-with="vivus-instant">.KZmyUGoi_0{stroke-dasharray:610 612;stroke-dashoffset:611;animation:KZmyUGoi_draw_0 10600ms ease-in-out 0ms infinite,KZmyUGoi_fade 10600ms linear 0ms infinite;}@keyframes KZmyUGoi_draw{100%{stroke-dashoffset:0;}}@keyframes KZmyUGoi_fade{0%{stroke-opacity:1;}96.22641509433963%{stroke-opacity:1;}100%{stroke-opacity:0;}}@keyframes KZmyUGoi_draw_0{7.547169811320755%{stroke-dashoffset: 611}67.9245283018868%{ stroke-dashoffset: 0;}100%{ stroke-dashoffset: 0;}}</style></svg>
